<mxfile host="Electron" agent="Mozilla/5.0 (Macintosh; Intel Mac OS X 10_15_7) AppleWebKit/537.36 (KHTML, like Gecko) draw.io/26.0.16 Chrome/132.0.6834.196 Electron/34.2.0 Safari/537.36" version="26.0.16">
  <diagram name="第 1 页" id="RGCnn-ANuOt5eMh1M6b6">
    <mxGraphModel dx="1166" dy="826" grid="1" gridSize="10" guides="1" tooltips="1" connect="1" arrows="1" fold="1" page="1" pageScale="1" pageWidth="827" pageHeight="1169" math="0" shadow="0">
      <root>
        <mxCell id="0" />
        <mxCell id="1" parent="0" />
        <mxCell id="KS0_q-0z9ZWX9hr38W4R-3" value="" style="html=1;verticalAlign=bottom;startArrow=circle;startFill=1;endArrow=open;startSize=6;endSize=8;curved=0;rounded=0;entryX=0.5;entryY=0;entryDx=0;entryDy=0;" parent="1" edge="1">
          <mxGeometry width="80" relative="1" as="geometry">
            <mxPoint x="320" y="130" as="sourcePoint" />
            <mxPoint x="320" y="200" as="targetPoint" />
            <mxPoint as="offset" />
          </mxGeometry>
        </mxCell>
        <mxCell id="KS0_q-0z9ZWX9hr38W4R-5" value="" style="rhombus;whiteSpace=wrap;html=1;" parent="1" vertex="1">
          <mxGeometry x="310" y="200" width="20" height="20" as="geometry" />
        </mxCell>
        <mxCell id="KS0_q-0z9ZWX9hr38W4R-7" value="" style="endArrow=none;html=1;rounded=0;" parent="1" edge="1">
          <mxGeometry width="50" height="50" relative="1" as="geometry">
            <mxPoint x="320" y="370" as="sourcePoint" />
            <mxPoint x="320" y="220" as="targetPoint" />
          </mxGeometry>
        </mxCell>
        <mxCell id="KS0_q-0z9ZWX9hr38W4R-8" value="" style="endArrow=classic;html=1;rounded=0;" parent="1" edge="1">
          <mxGeometry width="50" height="50" relative="1" as="geometry">
            <mxPoint x="320" y="360" as="sourcePoint" />
            <mxPoint x="470" y="360" as="targetPoint" />
            <Array as="points">
              <mxPoint x="370" y="360" />
            </Array>
          </mxGeometry>
        </mxCell>
        <mxCell id="KS0_q-0z9ZWX9hr38W4R-9" value="" style="endArrow=none;html=1;rounded=0;exitX=-0.005;exitY=0.772;exitDx=0;exitDy=0;exitPerimeter=0;" parent="1" edge="1" source="KS0_q-0z9ZWX9hr38W4R-37">
          <mxGeometry width="50" height="50" relative="1" as="geometry">
            <mxPoint x="320" y="480" as="sourcePoint" />
            <mxPoint x="320" y="370" as="targetPoint" />
          </mxGeometry>
        </mxCell>
        <mxCell id="KS0_q-0z9ZWX9hr38W4R-10" value="" style="endArrow=classic;html=1;rounded=0;" parent="1" edge="1">
          <mxGeometry width="50" height="50" relative="1" as="geometry">
            <mxPoint x="320" y="530" as="sourcePoint" />
            <mxPoint x="470" y="530" as="targetPoint" />
          </mxGeometry>
        </mxCell>
        <mxCell id="KS0_q-0z9ZWX9hr38W4R-11" value="" style="endArrow=classic;html=1;rounded=0;" parent="1" edge="1">
          <mxGeometry width="50" height="50" relative="1" as="geometry">
            <mxPoint x="320" y="649.26" as="sourcePoint" />
            <mxPoint x="470" y="649.26" as="targetPoint" />
          </mxGeometry>
        </mxCell>
        <mxCell id="KS0_q-0z9ZWX9hr38W4R-12" value="" style="endArrow=none;html=1;rounded=0;" parent="1" edge="1">
          <mxGeometry width="50" height="50" relative="1" as="geometry">
            <mxPoint x="320" y="650" as="sourcePoint" />
            <mxPoint x="320" y="530" as="targetPoint" />
          </mxGeometry>
        </mxCell>
        <mxCell id="KS0_q-0z9ZWX9hr38W4R-13" value="" style="endArrow=none;html=1;rounded=0;" parent="1" edge="1">
          <mxGeometry width="50" height="50" relative="1" as="geometry">
            <mxPoint x="320" y="770" as="sourcePoint" />
            <mxPoint x="320" y="650" as="targetPoint" />
          </mxGeometry>
        </mxCell>
        <mxCell id="KS0_q-0z9ZWX9hr38W4R-14" value="" style="endArrow=classic;html=1;rounded=0;" parent="1" edge="1">
          <mxGeometry width="50" height="50" relative="1" as="geometry">
            <mxPoint x="320" y="769.76" as="sourcePoint" />
            <mxPoint x="470" y="769.76" as="targetPoint" />
          </mxGeometry>
        </mxCell>
        <mxCell id="KS0_q-0z9ZWX9hr38W4R-15" value="" style="endArrow=none;html=1;rounded=0;" parent="1" edge="1">
          <mxGeometry width="50" height="50" relative="1" as="geometry">
            <mxPoint x="320" y="890" as="sourcePoint" />
            <mxPoint x="320" y="770" as="targetPoint" />
          </mxGeometry>
        </mxCell>
        <mxCell id="KS0_q-0z9ZWX9hr38W4R-16" value="" style="endArrow=classic;html=1;rounded=0;" parent="1" edge="1">
          <mxGeometry width="50" height="50" relative="1" as="geometry">
            <mxPoint x="320" y="890" as="sourcePoint" />
            <mxPoint x="470" y="890" as="targetPoint" />
          </mxGeometry>
        </mxCell>
        <mxCell id="KS0_q-0z9ZWX9hr38W4R-18" value="user choice&amp;nbsp;" style="text;html=1;align=center;verticalAlign=middle;resizable=0;points=[];autosize=1;strokeColor=none;fillColor=none;" parent="1" vertex="1">
          <mxGeometry x="230" y="190" width="90" height="30" as="geometry" />
        </mxCell>
        <mxCell id="KS0_q-0z9ZWX9hr38W4R-19" value="1.check seat availability&amp;nbsp;" style="text;html=1;align=center;verticalAlign=middle;resizable=0;points=[];autosize=1;strokeColor=none;fillColor=none;" parent="1" vertex="1">
          <mxGeometry x="320" y="338" width="150" height="30" as="geometry" />
        </mxCell>
        <mxCell id="KS0_q-0z9ZWX9hr38W4R-20" value="" style="rhombus;whiteSpace=wrap;html=1;" parent="1" vertex="1">
          <mxGeometry x="600" y="350" width="20" height="20" as="geometry" />
        </mxCell>
        <mxCell id="KS0_q-0z9ZWX9hr38W4R-21" value="enter seat id" style="rounded=1;whiteSpace=wrap;html=1;" parent="1" vertex="1">
          <mxGeometry x="470" y="350" width="90" height="20" as="geometry" />
        </mxCell>
        <mxCell id="KS0_q-0z9ZWX9hr38W4R-22" value="" style="endArrow=classic;html=1;rounded=0;entryX=0;entryY=0.5;entryDx=0;entryDy=0;" parent="1" target="KS0_q-0z9ZWX9hr38W4R-20" edge="1">
          <mxGeometry width="50" height="50" relative="1" as="geometry">
            <mxPoint x="560" y="360" as="sourcePoint" />
            <mxPoint x="610" y="310" as="targetPoint" />
          </mxGeometry>
        </mxCell>
        <mxCell id="KS0_q-0z9ZWX9hr38W4R-23" value="&amp;nbsp;available？" style="text;html=1;align=center;verticalAlign=middle;resizable=0;points=[];autosize=1;strokeColor=none;fillColor=none;" parent="1" vertex="1">
          <mxGeometry x="570" y="360" width="90" height="30" as="geometry" />
        </mxCell>
        <mxCell id="KS0_q-0z9ZWX9hr38W4R-24" value="" style="endArrow=classic;html=1;rounded=0;" parent="1" source="KS0_q-0z9ZWX9hr38W4R-28" edge="1">
          <mxGeometry width="50" height="50" relative="1" as="geometry">
            <mxPoint x="610" y="350" as="sourcePoint" />
            <mxPoint x="610" y="260" as="targetPoint" />
          </mxGeometry>
        </mxCell>
        <mxCell id="KS0_q-0z9ZWX9hr38W4R-25" value="" style="endArrow=classic;html=1;rounded=0;" parent="1" edge="1">
          <mxGeometry width="50" height="50" relative="1" as="geometry">
            <mxPoint x="620" y="360" as="sourcePoint" />
            <mxPoint x="710" y="360" as="targetPoint" />
          </mxGeometry>
        </mxCell>
        <mxCell id="KS0_q-0z9ZWX9hr38W4R-26" value="yes" style="text;html=1;align=center;verticalAlign=middle;resizable=0;points=[];autosize=1;strokeColor=none;fillColor=none;" parent="1" vertex="1">
          <mxGeometry x="570" y="290" width="40" height="30" as="geometry" />
        </mxCell>
        <mxCell id="KS0_q-0z9ZWX9hr38W4R-27" value="no" style="text;html=1;align=center;verticalAlign=middle;resizable=0;points=[];autosize=1;strokeColor=none;fillColor=none;" parent="1" vertex="1">
          <mxGeometry x="640" y="338" width="40" height="30" as="geometry" />
        </mxCell>
        <mxCell id="KS0_q-0z9ZWX9hr38W4R-29" value="&amp;nbsp;display unavailable" style="rounded=1;whiteSpace=wrap;html=1;" parent="1" vertex="1">
          <mxGeometry x="710" y="350" width="120" height="20" as="geometry" />
        </mxCell>
        <mxCell id="KS0_q-0z9ZWX9hr38W4R-33" value="" style="endArrow=none;html=1;rounded=0;" parent="1" edge="1">
          <mxGeometry width="50" height="50" relative="1" as="geometry">
            <mxPoint x="610" y="210" as="sourcePoint" />
            <mxPoint x="770" y="210" as="targetPoint" />
          </mxGeometry>
        </mxCell>
        <mxCell id="KS0_q-0z9ZWX9hr38W4R-34" value="" style="endArrow=classic;html=1;rounded=0;entryX=1;entryY=0.5;entryDx=0;entryDy=0;" parent="1" target="KS0_q-0z9ZWX9hr38W4R-5" edge="1">
          <mxGeometry width="50" height="50" relative="1" as="geometry">
            <mxPoint x="610" y="210" as="sourcePoint" />
            <mxPoint x="490" y="280" as="targetPoint" />
          </mxGeometry>
        </mxCell>
        <mxCell id="KS0_q-0z9ZWX9hr38W4R-35" value="" style="endArrow=classic;html=1;rounded=0;exitX=0.5;exitY=0;exitDx=0;exitDy=0;" parent="1" source="KS0_q-0z9ZWX9hr38W4R-28" edge="1">
          <mxGeometry width="50" height="50" relative="1" as="geometry">
            <mxPoint x="590" y="240" as="sourcePoint" />
            <mxPoint x="610" y="210" as="targetPoint" />
            <Array as="points">
              <mxPoint x="610" y="210" />
            </Array>
          </mxGeometry>
        </mxCell>
        <mxCell id="KS0_q-0z9ZWX9hr38W4R-36" value="" style="endArrow=classic;html=1;rounded=0;exitX=0.5;exitY=0;exitDx=0;exitDy=0;" parent="1" source="KS0_q-0z9ZWX9hr38W4R-29" edge="1">
          <mxGeometry width="50" height="50" relative="1" as="geometry">
            <mxPoint x="720" y="260" as="sourcePoint" />
            <mxPoint x="770" y="210" as="targetPoint" />
          </mxGeometry>
        </mxCell>
        <mxCell id="KS0_q-0z9ZWX9hr38W4R-37" value="2.book seat" style="text;html=1;align=center;verticalAlign=middle;resizable=0;points=[];autosize=1;strokeColor=none;fillColor=none;" parent="1" vertex="1">
          <mxGeometry x="320" y="508" width="90" height="30" as="geometry" />
        </mxCell>
        <mxCell id="KS0_q-0z9ZWX9hr38W4R-38" value="enter seat id" style="rounded=1;whiteSpace=wrap;html=1;" parent="1" vertex="1">
          <mxGeometry x="470" y="521" width="90" height="18" as="geometry" />
        </mxCell>
        <mxCell id="KS0_q-0z9ZWX9hr38W4R-39" value="" style="endArrow=classic;html=1;rounded=0;" parent="1" edge="1">
          <mxGeometry width="50" height="50" relative="1" as="geometry">
            <mxPoint x="565" y="530" as="sourcePoint" />
            <mxPoint x="605" y="530" as="targetPoint" />
          </mxGeometry>
        </mxCell>
        <mxCell id="KS0_q-0z9ZWX9hr38W4R-40" value="&amp;nbsp;generate reference" style="rounded=1;whiteSpace=wrap;html=1;" parent="1" vertex="1">
          <mxGeometry x="675" y="520" width="110" height="20" as="geometry" />
        </mxCell>
        <mxCell id="KS0_q-0z9ZWX9hr38W4R-42" value="" style="endArrow=classic;html=1;rounded=0;" parent="1" source="KS0_q-0z9ZWX9hr38W4R-40" target="KS0_q-0z9ZWX9hr38W4R-43" edge="1">
          <mxGeometry width="50" height="50" relative="1" as="geometry">
            <mxPoint x="765" y="530" as="sourcePoint" />
            <mxPoint x="805" y="530" as="targetPoint" />
          </mxGeometry>
        </mxCell>
        <mxCell id="KS0_q-0z9ZWX9hr38W4R-43" value="&amp;nbsp;update seat" style="rounded=1;whiteSpace=wrap;html=1;" parent="1" vertex="1">
          <mxGeometry x="815" y="520" width="80" height="20" as="geometry" />
        </mxCell>
        <mxCell id="KS0_q-0z9ZWX9hr38W4R-44" value="" style="endArrow=classic;html=1;rounded=0;" parent="1" edge="1">
          <mxGeometry width="50" height="50" relative="1" as="geometry">
            <mxPoint x="895" y="530" as="sourcePoint" />
            <mxPoint x="935" y="530" as="targetPoint" />
          </mxGeometry>
        </mxCell>
        <mxCell id="KS0_q-0z9ZWX9hr38W4R-46" style="edgeStyle=orthogonalEdgeStyle;rounded=0;orthogonalLoop=1;jettySize=auto;html=1;exitX=0.455;exitY=0;exitDx=0;exitDy=0;exitPerimeter=0;" parent="1" source="KS0_q-0z9ZWX9hr38W4R-45" edge="1">
          <mxGeometry relative="1" as="geometry">
            <mxPoint x="940" y="210" as="targetPoint" />
            <Array as="points">
              <mxPoint x="940" y="210" />
            </Array>
          </mxGeometry>
        </mxCell>
        <mxCell id="KS0_q-0z9ZWX9hr38W4R-45" value="save to database" style="rounded=1;whiteSpace=wrap;html=1;" parent="1" vertex="1">
          <mxGeometry x="935" y="520" width="110" height="20" as="geometry" />
        </mxCell>
        <mxCell id="KS0_q-0z9ZWX9hr38W4R-47" value="" style="endArrow=none;html=1;rounded=0;" parent="1" edge="1">
          <mxGeometry width="50" height="50" relative="1" as="geometry">
            <mxPoint x="770" y="210" as="sourcePoint" />
            <mxPoint x="1110" y="210" as="targetPoint" />
          </mxGeometry>
        </mxCell>
        <mxCell id="KS0_q-0z9ZWX9hr38W4R-48" value="" style="endArrow=classic;html=1;rounded=0;" parent="1" target="KS0_q-0z9ZWX9hr38W4R-28" edge="1">
          <mxGeometry width="50" height="50" relative="1" as="geometry">
            <mxPoint x="610" y="350" as="sourcePoint" />
            <mxPoint x="610" y="260" as="targetPoint" />
          </mxGeometry>
        </mxCell>
        <mxCell id="KS0_q-0z9ZWX9hr38W4R-28" value="&amp;nbsp;display available" style="rounded=1;whiteSpace=wrap;html=1;" parent="1" vertex="1">
          <mxGeometry x="560" y="260" width="100" height="20" as="geometry" />
        </mxCell>
        <mxCell id="KS0_q-0z9ZWX9hr38W4R-49" value="3.cancel seat" style="text;html=1;align=center;verticalAlign=middle;resizable=0;points=[];autosize=1;strokeColor=none;fillColor=none;" parent="1" vertex="1">
          <mxGeometry x="320" y="629" width="90" height="30" as="geometry" />
        </mxCell>
        <mxCell id="KS0_q-0z9ZWX9hr38W4R-52" value="" style="edgeStyle=orthogonalEdgeStyle;rounded=0;orthogonalLoop=1;jettySize=auto;html=1;" parent="1" source="KS0_q-0z9ZWX9hr38W4R-50" target="KS0_q-0z9ZWX9hr38W4R-51" edge="1">
          <mxGeometry relative="1" as="geometry" />
        </mxCell>
        <mxCell id="KS0_q-0z9ZWX9hr38W4R-50" value="enter seat id" style="rounded=1;whiteSpace=wrap;html=1;" parent="1" vertex="1">
          <mxGeometry x="475" y="640" width="90" height="18" as="geometry" />
        </mxCell>
        <mxCell id="KS0_q-0z9ZWX9hr38W4R-53" value="" style="endArrow=classic;html=1;rounded=0;exitX=1.013;exitY=0.586;exitDx=0;exitDy=0;exitPerimeter=0;" parent="1" edge="1" source="KS0_q-0z9ZWX9hr38W4R-51">
          <mxGeometry width="50" height="50" relative="1" as="geometry">
            <mxPoint x="719.995" y="600.134" as="sourcePoint" />
            <mxPoint x="1108.5" y="210" as="targetPoint" />
            <Array as="points">
              <mxPoint x="1110" y="650" />
            </Array>
          </mxGeometry>
        </mxCell>
        <mxCell id="KS0_q-0z9ZWX9hr38W4R-54" value="4.show booking status" style="text;html=1;align=center;verticalAlign=middle;resizable=0;points=[];autosize=1;strokeColor=none;fillColor=none;" parent="1" vertex="1">
          <mxGeometry x="320" y="750" width="140" height="30" as="geometry" />
        </mxCell>
        <mxCell id="KS0_q-0z9ZWX9hr38W4R-57" value="" style="edgeStyle=orthogonalEdgeStyle;rounded=0;orthogonalLoop=1;jettySize=auto;html=1;" parent="1" source="KS0_q-0z9ZWX9hr38W4R-55" target="KS0_q-0z9ZWX9hr38W4R-56" edge="1">
          <mxGeometry relative="1" as="geometry" />
        </mxCell>
        <mxCell id="KS0_q-0z9ZWX9hr38W4R-55" value="retrieve seats" style="rounded=1;whiteSpace=wrap;html=1;" parent="1" vertex="1">
          <mxGeometry x="475" y="760" width="90" height="20" as="geometry" />
        </mxCell>
        <mxCell id="KS0_q-0z9ZWX9hr38W4R-56" value="display status" style="whiteSpace=wrap;html=1;rounded=1;" parent="1" vertex="1">
          <mxGeometry x="655" y="760" width="115" height="20" as="geometry" />
        </mxCell>
        <mxCell id="KS0_q-0z9ZWX9hr38W4R-58" value="" style="endArrow=classic;html=1;rounded=0;exitX=1;exitY=0.5;exitDx=0;exitDy=0;" parent="1" edge="1" source="KS0_q-0z9ZWX9hr38W4R-56">
          <mxGeometry width="50" height="50" relative="1" as="geometry">
            <mxPoint x="795" y="770" as="sourcePoint" />
            <mxPoint x="1110" y="650" as="targetPoint" />
            <Array as="points">
              <mxPoint x="1110" y="770" />
              <mxPoint x="1110" y="700" />
            </Array>
          </mxGeometry>
        </mxCell>
        <mxCell id="KS0_q-0z9ZWX9hr38W4R-59" value="5.exit system" style="text;html=1;align=center;verticalAlign=middle;resizable=0;points=[];autosize=1;strokeColor=none;fillColor=none;" parent="1" vertex="1">
          <mxGeometry x="324" y="870" width="90" height="30" as="geometry" />
        </mxCell>
        <mxCell id="KS0_q-0z9ZWX9hr38W4R-60" value="" style="ellipse;html=1;shape=endState;fillColor=#000000;strokeColor=#ff0000;" parent="1" vertex="1">
          <mxGeometry x="470" y="880" width="20" height="20" as="geometry" />
        </mxCell>
        <mxCell id="3-Tu7Y5UQT9yV5LLJjub-1" value="" style="rhombus;whiteSpace=wrap;html=1;" vertex="1" parent="1">
          <mxGeometry x="605" y="520" width="20" height="20" as="geometry" />
        </mxCell>
        <mxCell id="3-Tu7Y5UQT9yV5LLJjub-2" value="" style="endArrow=classic;html=1;rounded=0;exitX=1.013;exitY=0.586;exitDx=0;exitDy=0;exitPerimeter=0;" edge="1" parent="1" target="KS0_q-0z9ZWX9hr38W4R-51">
          <mxGeometry width="50" height="50" relative="1" as="geometry">
            <mxPoint x="724.995" y="650.134" as="sourcePoint" />
            <mxPoint x="1113.5" y="260" as="targetPoint" />
            <Array as="points" />
          </mxGeometry>
        </mxCell>
        <mxCell id="KS0_q-0z9ZWX9hr38W4R-51" value="set seat to available" style="whiteSpace=wrap;html=1;rounded=1;" parent="1" vertex="1">
          <mxGeometry x="655" y="640" width="115" height="19" as="geometry" />
        </mxCell>
        <mxCell id="3-Tu7Y5UQT9yV5LLJjub-3" value="available？" style="text;html=1;align=center;verticalAlign=middle;resizable=0;points=[];autosize=1;strokeColor=none;fillColor=none;" vertex="1" parent="1">
          <mxGeometry x="580" y="530" width="80" height="30" as="geometry" />
        </mxCell>
        <mxCell id="3-Tu7Y5UQT9yV5LLJjub-4" value="" style="endArrow=classic;html=1;rounded=0;entryX=0;entryY=0.5;entryDx=0;entryDy=0;" edge="1" parent="1" target="KS0_q-0z9ZWX9hr38W4R-40">
          <mxGeometry width="50" height="50" relative="1" as="geometry">
            <mxPoint x="626" y="530" as="sourcePoint" />
            <mxPoint x="675" y="490" as="targetPoint" />
          </mxGeometry>
        </mxCell>
        <mxCell id="3-Tu7Y5UQT9yV5LLJjub-5" value="yes" style="text;html=1;align=center;verticalAlign=middle;resizable=0;points=[];autosize=1;strokeColor=none;fillColor=none;" vertex="1" parent="1">
          <mxGeometry x="625" y="508" width="40" height="30" as="geometry" />
        </mxCell>
        <mxCell id="3-Tu7Y5UQT9yV5LLJjub-6" value="" style="endArrow=classic;html=1;rounded=0;" edge="1" parent="1">
          <mxGeometry width="50" height="50" relative="1" as="geometry">
            <mxPoint x="615" y="520" as="sourcePoint" />
            <mxPoint x="615" y="480" as="targetPoint" />
          </mxGeometry>
        </mxCell>
        <mxCell id="3-Tu7Y5UQT9yV5LLJjub-7" value="no" style="text;html=1;align=center;verticalAlign=middle;resizable=0;points=[];autosize=1;strokeColor=none;fillColor=none;" vertex="1" parent="1">
          <mxGeometry x="585" y="488" width="40" height="30" as="geometry" />
        </mxCell>
        <mxCell id="3-Tu7Y5UQT9yV5LLJjub-11" value="" style="rhombus;whiteSpace=wrap;html=1;" vertex="1" parent="1">
          <mxGeometry x="605" y="460" width="20" height="20" as="geometry" />
        </mxCell>
        <mxCell id="3-Tu7Y5UQT9yV5LLJjub-12" value="prompt：join waitlist？" style="text;html=1;align=center;verticalAlign=middle;whiteSpace=wrap;rounded=0;" vertex="1" parent="1">
          <mxGeometry x="475" y="455" width="150" height="30" as="geometry" />
        </mxCell>
        <mxCell id="3-Tu7Y5UQT9yV5LLJjub-13" value="" style="endArrow=classic;html=1;rounded=0;exitX=1;exitY=0.5;exitDx=0;exitDy=0;" edge="1" parent="1" source="3-Tu7Y5UQT9yV5LLJjub-12">
          <mxGeometry width="50" height="50" relative="1" as="geometry">
            <mxPoint x="630" y="469.84" as="sourcePoint" />
            <mxPoint x="675" y="469.84" as="targetPoint" />
          </mxGeometry>
        </mxCell>
        <mxCell id="3-Tu7Y5UQT9yV5LLJjub-17" value="" style="edgeStyle=orthogonalEdgeStyle;rounded=0;orthogonalLoop=1;jettySize=auto;html=1;" edge="1" parent="1" source="3-Tu7Y5UQT9yV5LLJjub-14" target="3-Tu7Y5UQT9yV5LLJjub-16">
          <mxGeometry relative="1" as="geometry" />
        </mxCell>
        <mxCell id="3-Tu7Y5UQT9yV5LLJjub-14" value="record the passenger info" style="rounded=1;whiteSpace=wrap;html=1;" vertex="1" parent="1">
          <mxGeometry x="675" y="460" width="145" height="20" as="geometry" />
        </mxCell>
        <mxCell id="3-Tu7Y5UQT9yV5LLJjub-16" value="add to list" style="whiteSpace=wrap;html=1;rounded=1;" vertex="1" parent="1">
          <mxGeometry x="855" y="460" width="75" height="20" as="geometry" />
        </mxCell>
        <mxCell id="3-Tu7Y5UQT9yV5LLJjub-18" value="" style="endArrow=classic;html=1;rounded=0;exitX=1;exitY=0.5;exitDx=0;exitDy=0;" edge="1" parent="1" source="3-Tu7Y5UQT9yV5LLJjub-16">
          <mxGeometry width="50" height="50" relative="1" as="geometry">
            <mxPoint x="935" y="469.88" as="sourcePoint" />
            <mxPoint x="985" y="469.88" as="targetPoint" />
          </mxGeometry>
        </mxCell>
        <mxCell id="3-Tu7Y5UQT9yV5LLJjub-19" value="yes" style="text;html=1;align=center;verticalAlign=middle;resizable=0;points=[];autosize=1;strokeColor=none;fillColor=none;" vertex="1" parent="1">
          <mxGeometry x="625" y="448" width="40" height="30" as="geometry" />
        </mxCell>
        <mxCell id="3-Tu7Y5UQT9yV5LLJjub-20" value="" style="endArrow=classic;html=1;rounded=0;" edge="1" parent="1">
          <mxGeometry width="50" height="50" relative="1" as="geometry">
            <mxPoint x="615" y="460" as="sourcePoint" />
            <mxPoint x="615" y="430" as="targetPoint" />
          </mxGeometry>
        </mxCell>
        <mxCell id="3-Tu7Y5UQT9yV5LLJjub-21" value="no" style="text;html=1;align=center;verticalAlign=middle;resizable=0;points=[];autosize=1;strokeColor=none;fillColor=none;" vertex="1" parent="1">
          <mxGeometry x="585" y="430" width="40" height="30" as="geometry" />
        </mxCell>
        <mxCell id="3-Tu7Y5UQT9yV5LLJjub-22" value="" style="endArrow=classic;html=1;rounded=0;exitX=0.75;exitY=0.005;exitDx=0;exitDy=0;exitPerimeter=0;" edge="1" parent="1" source="3-Tu7Y5UQT9yV5LLJjub-21">
          <mxGeometry width="50" height="50" relative="1" as="geometry">
            <mxPoint x="620" y="430" as="sourcePoint" />
            <mxPoint x="985.8510638297872" y="430" as="targetPoint" />
          </mxGeometry>
        </mxCell>
      </root>
    </mxGraphModel>
  </diagram>
</mxfile>
